# xmcd
#
# Track frame offsets:
#	187
#	17092
#	35485
#	52825
#	70705
#	88280
#	104942
#	122917
#	141132
#	157322
#
# Disc length: 2329 seconds
#
# Revision: 1
# Processed by: cddbd v1.5.1PL0 Copyright (c) Steve Scherf et al.
# Submitted via: CDex 1.50Beta5
#
DISCID=9109170a
DTITLE=神山純一 - ベル・エール/鳥が奏でる森のシンフォニー
DYEAR=1994
DGENRE=
TTITLE0=森のささやき
TTITLE1=バード・サンクチュアリ
TTITLE2=鳥の歌
TTITLE3=朝もやのなかで
TTITLE4=風の想い
TTITLE5=ポエジー
TTITLE6=鳥たちのシンフォニー
TTITLE7=草原の詩集
TTITLE8=プレリュード
TTITLE9=森のトルベーユ
EXTD=
EXTT0=
EXTT1=
EXTT2=
EXTT3=
EXTT4=
EXTT5=
EXTT6=
EXTT7=
EXTT8=
EXTT9=
PLAYORDER=
